<svg id="Layer_1" data-name="Layer 1" xmlns="http://www.w3.org/2000/svg" viewBox="0 0 5304.74 976.97"><defs><style>.cls-1{fill:#c86605;}.cls-2{fill:#0567c8;}</style></defs><path class="cls-1" d="M-.48,251.36c43,0,86-.64,128.89.23,32.27.66,62.91,9.18,92.38,22.6a270.37,270.37,0,0,1,70.91,47.42,253.33,253.33,0,0,1,52.75,68.22c14.12,26.53,24.31,54.71,28.61,84.61a246.6,246.6,0,0,1,2.12,34.81q.21,226.21.11,452.43c0,1.66-.08,3.33,0,5,.11,2.87-1.18,4.31-4.1,4.25-1.67,0-3.33,0-5,0l-121.92,0c-19.1,0-37.63-3.71-56.22-7.77-27.06-5.92-51.57-17.78-74.42-32.56a242.87,242.87,0,0,1-60.45-56.09,249.9,249.9,0,0,1-37-66.86,229.55,229.55,0,0,1-12.8-55.19A145.59,145.59,0,0,0-.48,731ZM97.16,364.94c-.17,16.28,13.27,30.17,29.24,30.22s30-14.07,30-29.84c0-15.28-13.74-29.29-29.11-29.74C111.47,335.11,97.33,348.9,97.16,364.94Z" transform="translate(0.48 -1.08)"/><path class="cls-2" d="M894.53,2.81c-18.92,12.92-29.3,31.43-36.74,51.38C847.19,82.59,840.08,112,835.28,142c-3.94,24.64-4.24,49.7-9.56,74.19-4.25,19.53-9.61,38.7-15.06,57.9C804.24,296.7,794,317.58,782,337.44a159.19,159.19,0,0,1-48.05,50.74c-2.65-2.66-3.88-7.57-9.17-7.31-3,.14-6.22-.61-8.82.95-3.91,2.36-5.14,6.66-6.62,10.77,10.47,1.64,20.12,11.45,18,21.74,9.3-.91,12.87-3.57,14-10.43,1-6-.06-7.51-8.73-11.84l9-6.11c33-22.33,55.09-53.29,70.66-89.42,7.52-17.46,14.46-35.2,18.1-53.83,4.59-23.48,8.72-47.09,10.83-71,2.53-28.54,7.48-56.69,13.1-84.79a220.91,220.91,0,0,1,25.22-66.8c3.94-6.91,9.93-11.5,15.4-16.73,2.21-2.13,4.4-1.07,4.7,2.18.22,2.31.12,4.65.12,7q0,321.23,0,642.47,0,37-.34,73.93c-.27,29.6-6.84,57.8-17.06,85.59-8,21.87-19.52,41.54-33.32,59.81a244.81,244.81,0,0,1-194.75,96.78q-124,.24-247.94.05a33.33,33.33,0,0,0-4,0c-5.41.66-7.09-2-6.59-7a78.81,78.81,0,0,0,.05-8q-.08-313.25-.18-626.49A321.51,321.51,0,0,1,420,205.39c9.34-22.65,21.39-43.5,34.77-63.67,12.71-19.16,28.3-36.17,44.95-51.94a311.75,311.75,0,0,1,72.14-51.26c19.46-10,39.5-19.38,60.91-24.67,28.78-7.1,57.84-12.74,87.7-12.73q83,0,166,0C888.7,1.14,891.07.58,894.53,2.81Zm-135,133c.21-21.65-18.11-40.59-39.86-40-21.21.59-38.53,14.91-39.07,39.39-.46,21.52,17.71,39.56,39,39.83C737.43,175.31,760.11,158.19,759.5,135.84Zm-63,283c1.69-15,2.65-17.17,11.76-30.67A75.18,75.18,0,0,0,715,376.08c3.71-8.54,1-16.3-4.14-23.28-3-4-7.73-3.32-8.94,1.5-2.35,9.36-8,16.39-13.93,23.64C676.69,391.67,681,410.77,696.55,418.86Zm2.74,3.39c8.76,19.71,22.31,24.53,39.41,15.11a60,60,0,0,1,23.41-7.63c6.51-.63,7.45-3.1,3.7-8.18-7.11-9.62-18-12.41-30.13-6.53C724.44,420.48,713.09,424.32,699.29,422.25Zm-.6,7.78c-2.49,4.86-4.47,9.38-7,13.53-2.78,4.51-6.11,8.68-9.18,13a48.72,48.72,0,0,0-3.36,4.93c-3,5.66-2.15,10.44,2.35,14.28,4.73,4,10.13,4.94,14.47.79,7.66-7.32,14.6-15.44,17.3-26.12.82-3.22,1.11-6.61-1.89-9.22C707.16,437.57,703,433.86,698.69,430Zm-11.24-12.1c-.1-5.15-3.2-7.63-4.84-10.81-4.22-8.19-7.55-10.09-16.47-7.61-7.6,2.12-14.88,5.48-22.2,8.55a7.62,7.62,0,0,0-4.84,5.88c-.8,4.67-1.52,9.34,2.39,13s8.85,4.32,13.85,2.14C665.6,424.59,675.78,419.89,687.45,417.93Zm-2.07,3.13c-6.72,1.83-15.39,2.47-22.85,7.19-7.68,4.87-7.67,12.38.36,16.48,2.45,1.25,3.65,2.23,3.47,5-.26,4.06,2.42,5.9,5.87,6.88,3.86,1.09,6.83.21,9.6-3.11a70.55,70.55,0,0,0,12.89-22.13C697.41,423.62,695.21,421.06,685.38,421.06Zm24.17-.94c1.48-.19,3.77-.52,6.07-.78,5-.56,7.47-3.76,8.91-8.16s-.53-6.87-4.53-8.33a2.33,2.33,0,0,1-1.16-1.46c-1-3.95-3.64-5.25-7.43-4.75s-6.9,2.35-8.52,6a41,41,0,0,0-2.26,6.53C698.36,418.08,699.82,420,709.55,420.12Z" transform="translate(0.48 -1.08)"/><path class="cls-2" d="M2019.23,977.07c-39.16,2-75.52-5-111.39-16.2-33.66-10.5-64.16-26.64-93.11-46.61a283,283,0,0,1-37.45-31.19c-12-11.75-23.47-24.22-33.43-38.14a486.54,486.54,0,0,1-32.35-52.62c-11.14-20.69-17.75-43-24-65.37-11.21-40.24-12.82-81.45-9.69-122.78,2.21-29.24,9.56-57.48,18.76-85.46,7.36-22.39,18-43,30.08-62.69a318.51,318.51,0,0,1,79.95-88.29c19.71-15,40.67-28,63.06-38,25.14-11.25,51.11-21.19,78.57-25.34,41.28-6.23,82.62-7.6,124.31-2,29.69,4,57.62,12.57,85.07,24,27.2,11.33,52,26.34,75.38,44.15a286.87,286.87,0,0,1,36,32.94c12.14,13,24.41,26.35,32.83,42.47,2.6,5,6.37,9.34,9.28,14.17,16.9,28.13,29.58,58.18,36.69,90.09,7,31.5,10.65,63.58,9.63,96-.71,22.66-3.59,45-7.65,67.3-6.94,38.15-21.85,73-41.68,106a314.87,314.87,0,0,1-77.59,87.64c-27.78,21.54-58.08,39-91.29,50.31C2100,970.87,2059.78,980,2019.23,977.07ZM1843,637c.23,12.28-1.09,24.66.79,36.89,5.8,37.78,18.36,72.55,44.22,101.81,12.72,14.4,27.06,26.64,44,35.29,24.27,12.4,50.33,18.68,77.67,19.8,32.61,1.33,63.82-4.66,92.78-19.32,20.33-10.29,37.16-25.59,51.23-43.73,19.22-24.77,29.91-53.11,35.5-83.6a257.83,257.83,0,0,0,1.56-83.47c-3.49-24.41-9.67-48.15-21.55-70.1-3.51-6.48-8.31-12.05-12.06-18.32-8.89-14.85-21.49-26.51-35.17-36.25-19.81-14.11-41.6-24.18-66.38-28a247.39,247.39,0,0,0-88.28,2.34c-20.37,4.19-38.72,14.13-55.44,26.48-27,19.95-45.19,46.53-56.7,77.84C1845.44,581.28,1841.06,608.68,1843,637Z" transform="translate(0.48 -1.08)"/><path class="cls-2" d="M1605.81,971.1H1597c-53.65,0-107.3-.16-161,.18-7.33.05-11.24-2.1-14.65-8.61-12.17-23.22-25-46.13-37.6-69.1-5-9-10.29-17.88-15.26-26.91-11-20.07-21.87-40.25-33-60.28-15.16-27.35-30.56-54.56-45.64-82-1.54-2.79-3.11-3.88-6.08-3.85q-15,.13-30,0c-3.4,0-4.87,1.33-4.7,4.73.14,2.66,0,5.33,0,8q0,113.4,0,226.81c0,11.73,1.53,11-10.46,11q-70.48,0-141,0c-2,0-4,0-6,0-3,0-4.08-1.61-4-4.4.07-2.33,0-4.66,0-7V317.2c0-10.35-.73-9.78,9.71-9.78,89.31,0,178.62-.15,267.93.09a323.86,323.86,0,0,1,102.9,17.28,211.35,211.35,0,0,1,56.34,29.29c23.32,16.79,42.44,37.87,55.2,64.42,9.16,19,16.41,38.45,20.39,59.19,2.34,12.21,2.11,24.58,2.32,36.8.38,23.31-1.3,46.59-10,68.69-8.93,22.66-19.9,43.89-35.87,62.82-15.56,18.47-34.24,32.57-54.89,44A180.51,180.51,0,0,1,1463.08,706c-6.19,1.73-8,2.75-3.84,9.79,14.68,24.9,30.19,49.34,44.17,74.63,11.58,21,24.12,41.35,36,62.1,11.57,20.15,23.58,40.11,35.16,60.25,10.43,18.14,22,35.64,31.29,54.46C1606.31,968.11,1607.08,968.94,1605.81,971.1ZM1249.12,523.77q0,36.47,0,72.94c0,9.84.05,9.89,9.62,9.9,29.33,0,58.66-.06,88,0,19.22.06,37.82-2.58,55.12-11.57,15.54-8.07,26.33-20.71,31.29-37.09a113.37,113.37,0,0,0,.57-65.88c-5.83-19.93-19.06-33.55-37.21-41.8-13.63-6.19-28.76-8.29-43.84-8.39-32-.21-64-.12-96-.06-7.4,0-7.52.18-7.54,8C1249.08,474.47,1249.12,499.12,1249.12,523.77Z" transform="translate(0.48 -1.08)"/><path class="cls-2" d="M3415.61,497.1q-39.49,0-79,0c-8.12,0-8.2-.1-9.3-8-4.36-31.34-25.95-51.91-55.7-59.3a95.83,95.83,0,0,0-39.63-1.05,61,61,0,0,0-37.35,21.4c-7.58,9.06-10.44,20.77-11.15,32.53-1.33,22.28,7,39.85,25.62,52.94,12.16,8.57,26,13.24,39.16,19.57,24.66,11.9,51.41,18.12,76.9,27.82,28.58,10.88,57.3,21.21,84.92,34.66,23.16,11.27,42.82,26.37,60.27,44.93,14.53,15.47,26.43,32.7,32.59,53a188.46,188.46,0,0,1,8.22,54c.09,27.86-3.58,55.09-14.74,80.82a191,191,0,0,1-57,74.5c-34.76,27.67-74.76,43.33-118.23,49.22-48.15,6.53-96.22,5-143.71-7.2-28.62-7.35-55.85-18-80.25-34.41a200,200,0,0,1-60.86-63.81c-16.13-27-23-56.41-25.53-87.2-.7-8.61-.31-8.73,8.48-8.74q77.47,0,155,0c7.29,0,7.93-.49,9.32,7.84,3.49,20.83,11.3,39.66,29.31,52.54,11.6,8.29,24.71,12.74,38.78,14.45,19.91,2.41,39.15.07,57.54-8.3,23.93-10.9,33.29-30.56,32.56-55.58-.56-18.93-8.28-34.16-24.41-45.56-10.38-7.34-20.74-14.55-32.3-19.65-10.31-4.54-21.26-7.62-31.81-11.63-22.71-8.65-46.6-13.6-69.32-22.14-23.94-9-48.15-17.31-71.17-28.64A194.31,194.31,0,0,1,3056,614.53c-13.24-14.13-25.28-29.58-31.86-47.89a194.09,194.09,0,0,1-11.47-55.47,238.7,238.7,0,0,1,10.47-84.71c1.78-5.68,4.52-11.09,7.17-16.45a168.77,168.77,0,0,1,44.27-55.89c24.35-20.07,52.39-33.75,82.59-43.1,27.94-8.65,56.72-11.19,85.68-12.09,23.66-.74,47.17,1,70.73,3.93,26.46,3.27,51,11.62,75.17,22.25,21.68,9.53,40.59,22.81,57.55,38.9,31.66,30.05,48.29,67.8,54.78,110.44.85,5.58,1.12,11.24,1.87,16.84.57,4.3-.95,6-5.4,5.88-11.66-.21-23.33-.07-35-.07Z" transform="translate(0.48 -1.08)"/><path class="cls-2" d="M2834.09,497.1c-26.66,0-53.32-.15-80,.13-5.4.06-7.82-1.68-8.31-6.93a60.8,60.8,0,0,0-4.23-17.38c-12.09-29.62-35.94-42.37-66.07-45.31a81.43,81.43,0,0,0-43.71,7.47c-34,16.17-41.05,68.91-12,94.24a109.16,109.16,0,0,0,29.59,18.15c15.62,6.6,30.73,14.65,47,19.55,27.73,8.37,54.51,19.32,81.95,28.47,11.94,4,23.05,10.37,34.8,15,21.25,8.39,41,19.56,58,34.51,26.45,23.19,47.8,50.35,54.54,86a233.86,233.86,0,0,1,2.33,68.55,169.76,169.76,0,0,1-13.18,50.91c-11.67,26.52-28,49.58-50,68.72-18.29,15.89-38.54,28.83-60.79,37.64-30.68,12.16-62.64,20.35-96.07,20.47-18.32.06-36.7.62-55-.59-26.65-1.76-52.5-8-78-15.93-24.82-7.67-47.25-19.69-68.1-34.71a183.91,183.91,0,0,1-75.72-125.42c-1-6.91-1.74-13.87-2.17-20.83-.42-6.65-.17-6.67,6.28-6.92,1,0,2,0,3,0h153c8.84,0,8.83,0,10.57,8.6.53,2.61,1.08,5.22,1.75,7.79,10.21,38.91,36.31,57.59,77.39,59.22,16.54.66,32.49-2.23,47.49-9.52,25.16-12.24,32.81-31.92,31.82-57.93-.89-23.18-15.36-37.17-32.93-49.3-15.27-10.54-32.66-16.21-49.74-22.67-24.59-9.3-50.27-15.22-74.95-24.18-23.41-8.49-46.86-16.92-69.41-27.66a201.29,201.29,0,0,1-58.64-42.41c-23.3-24.17-37-53.16-41.71-86.55-5.4-38.75-1.37-76.34,13.16-112.63,6-14.92,15.53-27.86,25.7-40.21,14.14-17.16,31.64-30.63,50.69-41.57,25.2-14.46,52.28-25.31,81.09-29.72,42.27-6.48,84.71-7.33,127.36-1.49,27.73,3.79,53.54,12.2,78.87,23.7a195.53,195.53,0,0,1,67.91,51.17c23.11,26.85,35.68,58.88,41.26,93.71.79,4.92,1.51,9.86,1.93,14.83,1,12.46,1.07,11-9.81,11Q2872.58,497.15,2834.09,497.1Z" transform="translate(0.48 -1.08)"/><path class="cls-2" d="M4967.84,807.73c5.43-8.87,5.69-17.43,8.61-25.1,5.78-15.23,11.31-30.59,15.94-46.19,8.23-27.72,18.59-54.73,27-82.35,6.51-21.31,14.61-42.06,21.05-63.34,8.28-27.36,18.41-54.1,26.76-81.4,6.61-21.62,14.79-42.69,21.32-64.29,8.17-27.05,18.19-53.47,26.45-80.46,5.26-17.16,11.29-34,16.75-51.1,1.22-3.79,2.5-6.21,7.37-6.19,54,.2,107.95.15,161.92.2a15.54,15.54,0,0,1,3.22.78c-2.82,11.15-7.68,21.37-11.36,32-11.33,32.62-22.56,65.27-34.14,97.8C5245.28,476,5231,513.53,5218,551.58c-8.36,24.53-18.09,48.58-26,73.22-6.9,21.55-15.87,42.31-22.64,63.85-8.08,25.69-18.45,50.55-27.16,76-14.52,42.43-29.83,84.57-44.84,126.82-8.67,24.41-17.28,48.83-26.11,73.19-1.81,5-4.12,6.55-9.24,6.53q-94-.23-187.92.06c-5.87,0-8-2.17-9.77-7.27q-20.46-58.82-41.43-117.46c-4.34-12.21-9.56-24.13-13.51-36.46-8.3-26-18.68-51.19-27.23-77-7.61-23-17.27-45.36-24.39-68.5-8.6-28-19.77-55-29-82.73-12.55-37.82-27.24-74.94-40.17-112.65-8.52-24.82-18.25-49.22-26.37-74.15-7.42-22.76-16.34-44.95-24.11-67.56-2.13-6.2-3.62-12.62-5.38-18.89,3.67-1.89,7-1.08,10.26-1.09q75.46-.09,150.93,0c1.66,0,3.33.09,5,0,3.51-.23,4.81,1.14,6,4.77,6.77,21.21,14.68,42.06,21.06,63.38,7.82,26.11,17.95,51.46,25.56,77.59,6.7,23,15.62,45.2,22.38,68.12,7.91,26.78,18.2,52.78,26.14,79.5,6.62,22.32,15.15,44,21.71,66.25,7.88,26.79,18.14,52.8,26.1,79.5C4953.83,766.6,4961.31,786.11,4967.84,807.73Z" transform="translate(0.48 -1.08)"/><path class="cls-2" d="M4170.38,638.57V321.85c0-2.33-.05-4.67,0-7,.18-7.22.2-7.23,7-7.42,1.67-.05,3.34,0,5,0q190.95,0,381.89,0c13.84,0,12.19-1.58,12.22,12.22q.1,53,0,105.91c0,2-.15,4,0,6,.39,4.52-1.92,5.86-6,5.58-2.32-.16-4.66,0-7,0H4344.66c-2.33,0-4.68.16-7,0-4.54-.37-6.94,1.08-6.5,6.12.32,3.64.06,7.33.06,11V561.1c0,10.95-.75,10.09,10.42,10.09q97.47,0,195,0c11.5,0,11.39-2.09,11.39,11.17q0,52,0,103.91c0,9.25-.09,9.32-9.27,9.33q-96.47,0-192.94,0c-2.33,0-4.67-.06-7,0-7.28.22-7.49.24-7.5,7.11-.07,44,0,87.92-.13,131.88,0,5.17,1.53,7.17,6.78,7,8-.3,16-.07,24-.07h200.95c2,0,4,0,6,0,7.53.2,7.68.21,7.69,7.91q.07,57,0,113.9c0,7.56-.14,7.7-7.69,7.71q-59.49.07-119,0H4180c-10.38,0-9.57.79-9.57-9.81q0-127.87,0-255.77Z" transform="translate(0.48 -1.08)"/><path class="cls-2" d="M3912.94,704.52q0,127.9,0,255.81c0,11.71,1.48,10.74-10.63,10.75q-70.48,0-141,0c-2.33,0-4.66,0-7,0s-3.55-1.35-3.55-3.73c0-3,0-6,0-9q0-254.31,0-508.61c0-14.28,1.84-12.55-12.88-12.57q-75-.09-150,0a52,52,0,0,0-6,0c-5.51.66-6.63-2.12-6.62-7q.21-58,0-115.91c0-5.14,1.52-7.44,6.79-6.83a54.37,54.37,0,0,0,6,0q244,0,487.92,0c14.35,0,12.51-1.8,12.55,12.91.08,35.64,0,71.28,0,106.92,0,10.34.53,9.84-9.72,9.84q-77.49,0-155,0c-12,0-10.86-1-10.86,10.59Q3912.92,576.12,3912.94,704.52Z" transform="translate(0.48 -1.08)"/></svg>