<svg id="Layer_1" data-name="Layer 1" xmlns="http://www.w3.org/2000/svg" viewBox="0 0 509.53 294.54"><defs><style>.cls-1,.cls-2{fill:#c62127;}.cls-2{font-size:200px;font-family:Sportize-Regular, Sportize;}</style></defs><path class="cls-1" d="M109.19,3.55a15.54,15.54,0,0,0-3.51-.42H19.9A15.15,15.15,0,0,0,4.75,18.28v213a4.78,4.78,0,0,0,4.78,4.78H38.79a4.79,4.79,0,0,0,4.79-4.78V180.37a1.25,1.25,0,0,1,1-1.23,110,110,0,0,0,31.09-11.93,1.25,1.25,0,0,1,1.73.5l4.86,9.21a1.27,1.27,0,0,1,.14.58v53.79a4.78,4.78,0,0,0,4.79,4.78h29.25a4.78,4.78,0,0,0,4.79-4.78V177.5a1.28,1.28,0,0,0-.15-.58l-16.8-31.8a1.26,1.26,0,0,1,.17-1.41,111,111,0,0,0,16.65-25.13,1.4,1.4,0,0,0,.13-.57V18.67A15.53,15.53,0,0,0,109.19,3.55ZM52.82,37.12A35.28,35.28,0,0,1,78.21,26C88.3,25.9,98.4,26,108.48,26a1.26,1.26,0,0,1,.51,2.42,3.74,3.74,0,0,0-.45.22c-.66.3-1.3.62-1.93.94l-1.18.64c-.47.26-.94.52-1.39.8L104,31c-.46.28-.9.56-1.33.84-.81.53-1.58,1.09-2.33,1.68-.37.28-.73.58-1.08.88s-.45.37-.67.57l-.22.2c-.24.21-.48.43-.71.66s-.73.71-1.07,1.07-.59.62-.86.94-.62.7-.91,1.07-.65.83-1,1.24c-.13.19-.26.38-.38.57l0,0a2.14,2.14,0,0,0-.13.19l-.45.67c-.2.31-.39.63-.58.95s-.38.63-.54,1a1,1,0,0,0-.13.23c-.14.24-.26.48-.38.72s-.29.56-.41.84a.3.3,0,0,0,0,.08c-.18.37-.34.75-.51,1.14a1.16,1.16,0,0,0-.06.15c-.16.36-.31.74-.45,1.12a.78.78,0,0,0,0,.14c-.14.38-.29.78-.42,1.19a.18.18,0,0,0,0,.11c-.13.38-.26.77-.38,1.17a1.08,1.08,0,0,0-.05.21c-.12.4-.24.81-.34,1.23a46,46,0,0,0-1.26,7.4c-.09,1-.15,2.11-.2,3.22,0,.73,0,1.48,0,2.24,0,4.2,0,8.41,0,12.61v1.53c0,6,0,12.07-.11,18.1-.45,18.22-9.27,31.26-25.57,39.17a36.44,36.44,0,0,1-17.57,3.64c0-.21,0-.4-.06-.58l-.11,0V46.74A4.78,4.78,0,0,1,48.36,42h0a1.26,1.26,0,0,0,1-.56,1.21,1.21,0,0,1,.14-.2c.23-.34.47-.68.73-1l.17-.25a.43.43,0,0,0,.11-.12l0,0s0,0,0-.06a1.92,1.92,0,0,1,.18-.22,2.34,2.34,0,0,1,.24-.31l.15-.2c.16-.18.31-.37.45-.55C52,38,52.42,37.55,52.82,37.12Z" transform="translate(-4.75 -3.13)"/><path class="cls-1" d="M96,40.33l-1.39-.1a1.23,1.23,0,0,0-1.11.51l0,0a2.14,2.14,0,0,0-.13.19l-.45.67c-.2.31-.39.63-.58.95s-.38.63-.54,1a1,1,0,0,0-.13.23c-.14.24-.26.48-.38.72s-.29.56-.41.84a.3.3,0,0,0,0,.08c-.18.37-.34.75-.51,1.14a1.16,1.16,0,0,0-.06.15c-.16.36-.31.74-.45,1.12a.78.78,0,0,0,0,.14c-.14.38-.29.78-.42,1.19a.18.18,0,0,0,0,.11c-.13.38-.26.77-.38,1.17a1.08,1.08,0,0,0-.05.21c-.12.4-.24.81-.34,1.23a46,46,0,0,0-1.26,7.4c-.09,1-.15,2.11-.2,3.22,0,.73,0,1.48,0,2.24,0,4.2,0,8.41,0,12.61v1.53c0,6,0,12.07-.11,18.1-.45,18.22-9.27,31.26-25.57,39.17a36.44,36.44,0,0,1-17.57,3.64c0-.21,0-.4-.06-.58s-.09-.56-.11-.8V63.72c0-1.32,0-2.64,0-4A33.31,33.31,0,0,1,49,42c.17-.25.33-.51.51-.76s.47-.68.73-1l.17-.25a1.22,1.22,0,0,1,.15-.17s0,0,0-.06a1.92,1.92,0,0,1,.18-.22,2.34,2.34,0,0,1,.24-.31l.15-.2a1.25,1.25,0,0,0-.88-2l-8.13-.6a1.25,1.25,0,0,0-1.36,1.15l-3.74,50.1-4,53.76a1.27,1.27,0,0,0,1.16,1.36l53.78,4a1.27,1.27,0,0,0,1.36-1.16l6.2-83.1,1.54-20.76A1.26,1.26,0,0,0,96,40.33Z" transform="translate(-4.75 -3.13)"/><circle class="cls-1" cx="75.05" cy="33.19" r="3.59"/><text class="cls-2" transform="translate(124.8 232.94)">o </text><path class="cls-1" d="M273.27,181.07l-.42-.3-49.13-15.26,36.35,26.16a7.47,7.47,0,0,1,2.4,5.2v21.2a2.53,2.53,0,0,1-2.8,2.8h-22.4a2.53,2.53,0,0,1-2.8-2.8v-21h-18.2v25.4a13.49,13.49,0,0,0,13.6,13.6h37.2a13.49,13.49,0,0,0,13.6-13.6v-25.8C280.67,190.67,278.07,184.47,273.27,181.07Zm7.4-31.8v-25.4a13.49,13.49,0,0,0-13.6-13.6h-37.2a13.49,13.49,0,0,0-13.6,13.6v26a19.82,19.82,0,0,0,3.52,11.7L266.21,176l-29.34-21.12a5.92,5.92,0,0,1-2.4-5.2v-21.4a2.53,2.53,0,0,1,2.8-2.8h22.4a2.53,2.53,0,0,1,2.8,2.8v21Z" transform="translate(-4.75 -3.13)"/><text class="cls-2" transform="translate(284.54 232.94)">tev</text></svg>