<svg id="Layer_1" data-name="Layer 1" xmlns="http://www.w3.org/2000/svg" viewBox="0 0 436.82 873.63"><defs><style>.cls-1{fill:#b82132;}</style></defs><path class="cls-1" d="M647.71,68.69a57.16,57.16,0,0,0-13.15-1.58H312.82A56.82,56.82,0,0,0,256,123.94V922.8a18,18,0,0,0,17.94,18H383.67a18,18,0,0,0,17.95-18v-191a4.68,4.68,0,0,1,3.72-4.59A413.23,413.23,0,0,0,521.93,682.5a4.69,4.69,0,0,1,6.49,1.86l18.24,34.53a5,5,0,0,1,.54,2.19V922.8a18,18,0,0,0,17.94,18H674.87a18,18,0,0,0,17.94-18V721.08a5,5,0,0,0-.53-2.19l-63-119.25a4.7,4.7,0,0,1,.62-5.29,415.67,415.67,0,0,0,62.43-94.27,4.63,4.63,0,0,0,.49-2.1V125.37A58.19,58.19,0,0,0,647.71,68.69ZM436.31,194.58a132.29,132.29,0,0,1,95.22-41.67c37.83-.42,75.7-.13,113.53-.17a4.73,4.73,0,0,1,1.9,9.06,17.62,17.62,0,0,0-1.69.82c-2.48,1.12-4.88,2.32-7.24,3.52-1.49.78-3,1.57-4.42,2.4-1.78,1-3.52,2-5.21,3a.92.92,0,0,0-.25.17c-1.7,1-3.35,2.07-5,3.14-3.06,2-6,4.09-8.77,6.29-1.36,1.07-2.73,2.19-4,3.3-.83.66-1.65,1.41-2.48,2.15a7,7,0,0,0-.83.75c-.91.78-1.82,1.61-2.68,2.48-1.37,1.28-2.73,2.64-4,4-1.12,1.16-2.2,2.31-3.23,3.51-1.2,1.33-2.31,2.65-3.39,4-1.24,1.53-2.44,3.1-3.6,4.68-.49.7-1,1.4-1.44,2.1l-.13.13a6.86,6.86,0,0,0-.45.7c-.58.83-1.16,1.65-1.7,2.52-.74,1.16-1.49,2.36-2.19,3.56s-1.4,2.36-2,3.55a8.45,8.45,0,0,0-.49.87c-.5.91-1,1.82-1.41,2.73s-1.07,2.07-1.53,3.14a1.21,1.21,0,0,0-.16.29c-.66,1.41-1.28,2.81-1.9,4.26a5.31,5.31,0,0,0-.25.58c-.58,1.37-1.16,2.77-1.66,4.22a2.53,2.53,0,0,0-.2.49c-.54,1.45-1.08,2.94-1.57,4.47a.65.65,0,0,0-.13.41c-.49,1.45-.95,2.9-1.4,4.39a3.56,3.56,0,0,0-.21.78c-.46,1.53-.91,3.06-1.28,4.63a176.61,176.61,0,0,0-4.72,27.74c-.33,3.93-.57,7.94-.74,12.08-.12,2.77-.21,5.58-.21,8.43-.08,15.75,0,31.51.13,47.26v5.75c.12,22.65.16,45.27-.42,67.89-1.69,68.34-34.77,117.25-95.88,146.9a136.43,136.43,0,0,1-65.9,13.64c-.08-.78-.17-1.49-.25-2.15l-.41.12V230.68a18,18,0,0,1,17.94-18h0a4.63,4.63,0,0,0,3.89-2.11,8.11,8.11,0,0,1,.54-.74c.86-1.28,1.77-2.56,2.72-3.8l.67-.91a4.75,4.75,0,0,0,.41-.46c0-.08.08-.12.12-.2s.09-.13.13-.21c.2-.29.45-.58.66-.83a14.5,14.5,0,0,1,.91-1.16,8.88,8.88,0,0,1,.58-.74c.58-.7,1.16-1.41,1.69-2.07C433.33,197.81,434.78,196.2,436.31,194.58Z" transform="translate(-256 -67.11)"/><path class="cls-1" d="M598.09,206.61l-5.21-.37a4.67,4.67,0,0,0-4.17,1.9l-.13.13a6.86,6.86,0,0,0-.45.7c-.58.83-1.16,1.65-1.7,2.52-.74,1.16-1.49,2.36-2.19,3.56s-1.4,2.36-2,3.55a8.45,8.45,0,0,0-.49.87c-.5.91-1,1.82-1.41,2.73s-1.07,2.07-1.53,3.14a1.21,1.21,0,0,0-.16.29c-.66,1.41-1.28,2.81-1.9,4.26a5.31,5.31,0,0,0-.25.58c-.58,1.37-1.16,2.77-1.66,4.22a2.53,2.53,0,0,0-.2.49c-.54,1.45-1.08,2.94-1.57,4.47a.65.65,0,0,0-.13.41c-.49,1.45-.95,2.9-1.4,4.39a3.56,3.56,0,0,0-.21.78c-.46,1.53-.91,3.06-1.28,4.63a176.61,176.61,0,0,0-4.72,27.74c-.33,3.93-.57,7.94-.74,12.08-.12,2.77-.21,5.58-.21,8.43-.08,15.75,0,31.51.13,47.26v5.75c.12,22.65.16,45.27-.42,67.89-1.69,68.34-34.77,117.25-95.88,146.9a136.43,136.43,0,0,1-65.9,13.64c-.08-.78-.17-1.49-.25-2.15-.16-1.12-.33-2.11-.41-3v-280c0-5,.08-9.92.16-14.88a124.85,124.85,0,0,1,20.3-66.74c.62-.95,1.24-1.9,1.91-2.85.86-1.28,1.77-2.56,2.72-3.8l.67-.91a3.83,3.83,0,0,1,.53-.66c0-.09.09-.13.13-.21.2-.29.45-.58.66-.83a14.5,14.5,0,0,1,.91-1.16,8.88,8.88,0,0,1,.58-.74,4.71,4.71,0,0,0-3.31-7.69l-30.51-2.27a4.72,4.72,0,0,0-5.09,4.34l-14,187.87-15,201.64a4.72,4.72,0,0,0,4.34,5.09l201.72,15a4.74,4.74,0,0,0,5.09-4.34l23.23-311.67,5.79-77.85A4.73,4.73,0,0,0,598.09,206.61Z" transform="translate(-256 -67.11)"/><circle class="cls-1" cx="281.47" cy="124.48" r="13.47"/></svg>